<svg xmlns="http://www.w3.org/2000/svg" width="42" height="40" fill="none"><path fill="#FF8F27" stroke="#051A2F" stroke-width="3" d="M15.721 2.333H14.19l.033 1.532.11 5.106-4.314-2.728L8.683 5.4 7.91 6.776l-4.897 8.71-.754 1.34 1.36.72 4.504 2.384-4.53 2.516-1.337.742.767 1.322 4.897 8.443.77 1.326 1.308-.798 4.398-2.68-.173 5.209-.051 1.55h12.896l-.052-1.55-.17-5.092 4.384 2.727 1.325.825.77-1.357 4.898-8.614.753-1.324-1.335-.732-4.58-2.513 4.553-2.38 1.383-.723-.777-1.354-4.897-8.528-.764-1.33-1.313.793-4.347 2.628.118-5.169.035-1.534H15.72Z"/></svg>