<svg xmlns="http://www.w3.org/2000/svg" width="39" height="38" fill="none"><path fill="#C8DDF1" stroke="#051A2F" stroke-width="3" d="m26.261 10.829-.006-.002a.253.253 0 0 1-.187-.14l-.002-.003-3.168-6v-.002a4.33 4.33 0 0 0-3.863-2.34c-1.649 0-3.1.895-3.865 2.336l-.002.004-3.164 6.003-.002.003a.252.252 0 0 1-.189.139l-.009.002-6.639 1.18h-.001a4.339 4.339 0 0 0-3.4 2.976 4.374 4.374 0 0 0 1.013 4.405l4.687 4.889.003.003c.058.06.09.144.076.247L6.6 31.26v.004a4.386 4.386 0 0 0 1.747 4.157l.006.004.007.005c.759.55 1.652.843 2.561.843.664 0 1.323-.153 1.93-.451l.003-.001 6.055-2.982.001-.001a.263.263 0 0 1 .239-.002l6.06 2.985.006.003a4.323 4.323 0 0 0 4.492-.397l.005-.004a4.379 4.379 0 0 0 1.757-4.159v-.004l-.942-6.73a.287.287 0 0 1 .076-.247l.003-.003 4.686-4.889a4.374 4.374 0 0 0 1.013-4.405l-.002-.007c-.508-1.55-1.78-2.683-3.404-2.969h-.001l-6.638-1.18Z"/></svg>