<svg xmlns="http://www.w3.org/2000/svg" width="39" height="39" fill="none"><path fill="#E9FA49" stroke="#051A2F" stroke-width="3" d="M30.366 12.918H26.05V8.555a6.646 6.646 0 0 0-1.924-4.68 6.565 6.565 0 0 0-4.66-1.945c-1.751 0-3.427.7-4.661 1.944a6.645 6.645 0 0 0-1.925 4.68v4.364H8.562c-1.75 0-3.427.7-4.66 1.944l1.064 1.057-1.065-1.057a6.646 6.646 0 0 0-1.924 4.68c0 1.754.69 3.438 1.924 4.681a6.565 6.565 0 0 0 4.66 1.945h4.318v4.363c0 1.753.69 3.437 1.925 4.68a6.56 6.56 0 0 0 9.32.001 6.646 6.646 0 0 0 1.925-4.681v-4.363h4.317c1.75 0 3.427-.7 4.661-1.945a6.646 6.646 0 0 0 1.925-4.68 6.646 6.646 0 0 0-1.925-4.68 6.565 6.565 0 0 0-4.66-1.945Z"/></svg>