<svg xmlns="http://www.w3.org/2000/svg" width="41" height="39" fill="none"><path fill="#C8DDF1" stroke="#051A2F" stroke-width="3" d="M15.71 2.316h-1.533l.033 1.533.106 4.954-4.185-2.647-1.335-.844-.774 1.377-4.804 8.543-.754 1.34 1.36.72 4.37 2.314-4.397 2.442-1.336.742.767 1.322 4.804 8.281.769 1.326 1.309-.797 4.268-2.602-.168 5.056-.051 1.55h12.708l-.051-1.55-.166-4.94 4.254 2.647 1.325.824.772-1.357 4.803-8.449.753-1.324-1.335-.732-4.445-2.439 4.419-2.31 1.382-.723-.777-1.353-4.803-8.365-.764-1.33-1.313.793-4.219 2.55.114-5.017.035-1.535H15.71Z"/></svg>